<?xml version="1.0" encoding="iso-8859-1"?>
<!-- Generator: Adobe Illustrator 16.0.0, SVG Export Plug-In . SVG Version: 6.00 Build 0)  -->
<!DOCTYPE svg PUBLIC "-//W3C//DTD SVG 1.1//EN" "http://www.w3.org/Graphics/SVG/1.1/DTD/svg11.dtd">
<svg version="1.1" id="Capa_1" xmlns="http://www.w3.org/2000/svg" xmlns:xlink="http://www.w3.org/1999/xlink" x="0px" y="0px"
	 width="329.455px" height="329.455px" viewBox="0 0 329.455 329.455" style="enable-background:new 0 0 329.455 329.455;"
	 xml:space="preserve">
	<g>
		<path fill="#bdbdbd" d="M284.507,122.731c-1.225-6.12-11.628-6.12-12.853,0c-4.284,28.152-1.224,58.752-1.224,87.516
			c0,23.256,6.731,45.288-20.808,50.185c-81.396,15.3-162.181-0.612-244.801,2.447c-6.732,0-6.12,9.793,0,9.793
			c85.068,4.896,178.092,24.479,261.937-0.612c16.523-4.896,18.359-20.196,18.972-34.884
			C286.955,199.844,290.015,159.451,284.507,122.731z"/>
		<path fill="#bdbdbd" d="M249.011,120.895c0-9.18-14.076-9.18-14.076,0c0,33.048,0,66.096,0,99.144c-38.556,1.836-77.112,3.061-115.668,3.672
			c-36.72,0.612-78.336-3.672-114.444,4.896c-2.448,0.612-2.448,4.284,0,4.284c33.048,7.956,70.38,3.672,104.04,3.672
			c44.676,0,88.741-1.224,133.417-3.061c3.672,0,6.732-3.06,6.732-6.731C249.011,191.275,249.011,155.779,249.011,120.895z"/>
		<path fill="#bdbdbd" d="M329.183,135.583c-7.956-31.824-38.556-61.2-56.916-87.516c-2.448-3.672-7.344-4.284-11.016-1.224
			c-25.704,21.42-49.572,44.064-68.544,71.604c-3.061,4.896,4.283,10.404,7.955,6.12c18.973-23.868,41.005-43.452,64.261-62.424
			c17.136,26.316,33.66,56.304,54.468,79.56C323.063,146.599,331.019,141.091,329.183,135.583z"/>
	</g>
</svg>
